<svg width="97" height="81" viewBox="0 0 97 81" fill="none" xmlns="http://www.w3.org/2000/svg">
<path d="M14.5 8C14.5 12.173 11.3361 15.5 7.5 15.5C3.66391 15.5 0.5 12.173 0.5 8C0.5 3.82698 3.66391 0.5 7.5 0.5C11.3361 0.5 14.5 3.82698 14.5 8Z" stroke="#5EC4DB"/>
<line x1="21" y1="15.5" x2="97" y2="15.5" stroke="#5EC4DB"/>
<line x1="21" y1="37.5" x2="97" y2="37.5" stroke="#5EC4DB"/>
<path d="M14.5 30C14.5 34.173 11.3361 37.5 7.5 37.5C3.66391 37.5 0.5 34.173 0.5 30C0.5 25.827 3.66391 22.5 7.5 22.5C11.3361 22.5 14.5 25.827 14.5 30Z" stroke="#5EC4DB"/>
<path d="M14.5 51C14.5 55.173 11.3361 58.5 7.5 58.5C3.66391 58.5 0.5 55.173 0.5 51C0.5 46.827 3.66391 43.5 7.5 43.5C11.3361 43.5 14.5 46.827 14.5 51Z" stroke="#5EC4DB"/>
<line x1="21" y1="58.5" x2="97" y2="58.5" stroke="#5EC4DB"/>
<line x1="21" y1="80.5" x2="97" y2="80.5" stroke="#5EC4DB"/>
<path d="M14.5 73C14.5 77.173 11.3361 80.5 7.5 80.5C3.66391 80.5 0.5 77.173 0.5 73C0.5 68.827 3.66391 65.5 7.5 65.5C11.3361 65.5 14.5 68.827 14.5 73Z" stroke="#5EC4DB"/>
</svg>
